<svg xmlns="http://www.w3.org/2000/svg" viewBox="0 0 200 200" width="40" height="40">
  <rect width="200" height="200" fill="#0b57c5"/>
  <rect x="10" y="10" width="180" height="180" fill="none" stroke="#fff" stroke-width="8"/>
  <path d="M78 170 H170 V112 H126 V74" fill="none" stroke="#fff" stroke-width="10"/>
  <circle cx="58" cy="86" r="16" fill="#fff"/>
  <rect x="46" y="104" width="24" height="52" rx="12" fill="#fff"/>
  <rect x="38" y="148" width="14" height="22" rx="6" fill="#fff" transform="rotate(18 45 159)"/>
  <rect x="62" y="148" width="14" height="22" rx="6" fill="#fff" transform="rotate(-12 69 159)"/>
  <rect x="58" y="108" width="36" height="14" rx="7" fill="#fff" transform="rotate(-38 76 115)"/>
  <circle cx="118" cy="58" r="16" fill="#fff"/>
  <rect x="128" y="70" width="50" height="22" rx="11" fill="#fff" transform="rotate(18 153 81)"/>
  <rect x="148" y="78" width="36" height="16" rx="8" fill="#fff"/>
  <rect x="86" y="92" width="40" height="14" rx="7" fill="#fff" transform="rotate(38 106 99)"/>
</svg>
